<svg width="80" height="78" viewBox="0 0 80 78" fill="none" xmlns="http://www.w3.org/2000/svg">
<path d="M80 0L72.4988 69.9059L39.9995 77.4349L7.49959 69.9059L0 0H80ZM64.8847 14.2143H39.9702H14.6144L15.827 22.6561H39.9702H41.3264L39.9702 23.1417L16.7094 31.4772L17.4808 39.7288L39.9702 39.7915L52.0239 39.8244L51.2523 50.8269L39.9701 53.5598V53.5512L39.8776 53.5733L28.9818 51.2068L28.3206 44.377H28.2845H18.1781H18.1425L19.4654 57.5618L39.9704 62.779V62.7696L40.0074 62.779L60.4025 57.6568L63.0481 31.4772H39.9704H39.9135L39.9704 31.456L63.8935 22.6561L64.8847 14.2143Z" fill="#BCBCBC"/>
</svg>
