<svg width="80" height="78" viewBox="0 0 80 78" fill="none" xmlns="http://www.w3.org/2000/svg">
<path d="M31.8965 11.3645L31.5253 11.7237L31.8965 12.083L37.7261 17.7255L37.9276 17.9206L38.1991 17.8503C38.7728 17.7018 39.3762 17.6225 40 17.6225C43.8466 17.6225 46.9367 20.6366 46.9367 24.3208C46.9367 24.92 46.8552 25.5004 46.703 26.0524L46.6241 26.3383L46.8373 26.5446L54.4588 33.9216L54.6602 34.1166L54.9317 34.0464C55.5055 33.8982 56.109 33.8187 56.7327 33.8187C60.5794 33.8187 63.6694 36.8327 63.6694 40.517C63.6694 44.2012 60.5794 47.2153 56.7327 47.2153C52.886 47.2153 49.7959 44.2012 49.7959 40.517C49.7959 39.9176 49.8774 39.3375 50.0297 38.7856L50.1085 38.4996L49.8954 38.2934L44.0661 32.6506L43.2183 31.83V33.0099V50.478V50.7711L43.4741 50.9143C45.5505 52.0769 46.9367 54.2425 46.9367 56.7132C46.9367 60.3974 43.8466 63.4115 40 63.4115C36.1533 63.4115 33.0632 60.3974 33.0632 56.7132C33.0632 54.2425 34.4494 52.0769 36.5259 50.9143L36.7816 50.7711V50.478V30.5561V30.263L36.5259 30.1198C34.4494 28.9572 33.0632 26.7914 33.0632 24.3208C33.0632 23.7215 33.1447 23.1412 33.2969 22.5892L33.3758 22.3033L33.1627 22.097L27.3334 16.4544L26.9856 16.1178L26.6379 16.4544L9.2672 33.2682C6.15995 36.2756 6.15995 41.1592 9.26721 44.1666L34.3937 68.4875C37.4916 71.4861 42.5083 71.4861 45.6062 68.4875L70.7328 44.1666C73.8399 41.1592 73.8399 36.2756 70.7328 33.2682L45.6063 8.9474C42.5083 5.94862 37.4916 5.94862 34.3937 8.9474L31.8965 11.3645ZM50.1693 4.57596L50.517 4.21669L50.1693 4.57596L75.2959 28.8967C80.9014 34.3226 80.9014 43.1122 75.2959 48.538L50.1693 72.8589C44.5547 78.2935 35.4453 78.2935 29.8305 72.8589L4.70409 48.538C-0.901373 43.1122 -0.901365 34.3226 4.70413 28.8967L29.8305 4.57593C35.4453 -0.858657 44.5547 -0.858639 50.1693 4.57596Z" fill="white" stroke="black"/>
</svg>
