<svg width="80" height="78" viewBox="0 0 80 78" fill="none" xmlns="http://www.w3.org/2000/svg">
<g clip-path="url(#clip0_50_15)">
<rect width="80" height="77.4349" fill="black"/>
<path fill-rule="evenodd" clip-rule="evenodd" d="M61.312 71.3645C54.332 71.3645 49.82 68.1435 47.62 63.931L53.74 60.4998C55.352 63.0474 57.444 64.9179 61.152 64.9179C64.264 64.9179 66.252 63.4107 66.252 61.3316C66.252 58.2032 61.94 56.9809 58.896 55.7187C53.472 53.4847 49.8719 50.6777 49.8719 44.75C49.8719 39.2947 54.168 35.1368 60.884 35.1368C65.66 35.1368 69.1 36.7472 71.568 40.9558L65.7159 44.595C64.4279 42.361 63.032 41.4776 60.884 41.4776C58.68 41.4776 57.2841 42.8295 57.2841 44.595C57.2841 46.7787 58.6801 47.6619 61.9041 49.0131C68.6601 51.8162 73.772 54.0184 73.772 61.2276C73.772 67.7786 68.456 71.3645 61.312 71.3645ZM44 60.3958C44 67.9341 39.2039 71.9184 32.5439 71.9184C26.5279 71.9184 22.924 69.6914 21.152 65.8196H21.092H21.064H21.048L27.1639 61.6813C28.3439 63.7063 29.408 65.1428 31.984 65.1428C34.456 65.1428 36 63.9312 36 60.2956V34.8457H44V60.3958ZM0 77.4349H80V0H0V77.4349Z" fill="white"/>
</g>
<rect x="0.5" y="0.5" width="79" height="76.4349" stroke="#BCBCBC"/>
<defs>
<clipPath id="clip0_50_15">
<rect width="80" height="77.4349" fill="white"/>
</clipPath>
</defs>
</svg>
