<svg width="80" height="78" viewBox="0 0 80 78" fill="none" xmlns="http://www.w3.org/2000/svg">
<path d="M0 38.7174V77.4349H80V0H0V38.7174ZM64.465 35.6297C66.4975 36.1209 68.045 37.0042 69.4775 38.4271C70.2075 39.182 71.3 40.5686 71.3925 40.9098C71.4175 41.0114 67.9425 43.2667 65.8325 44.5275C65.755 44.5783 65.4425 44.2637 65.1025 43.7701C64.075 42.3206 62.9925 41.6914 61.34 41.5777C58.9175 41.4252 57.355 42.6497 57.3675 44.7041C57.355 45.2074 57.4725 45.7132 57.705 46.1536C58.24 47.2256 59.2425 47.8668 62.34 49.1663C68.07 51.5474 70.5175 53.1227 72.04 55.3538C73.745 57.8487 74.1225 61.8317 72.9775 64.8057C71.7025 68.0193 68.55 70.2116 64.1225 70.9303C62.755 71.1699 59.5 71.1312 58.0275 70.8674C54.8125 70.3133 51.765 68.7743 49.89 66.7585C49.1475 65.9769 47.715 63.9225 47.8075 63.7846C47.8475 63.7337 48.1725 63.5329 48.5375 63.3296C48.9025 63.1264 50.2425 62.3714 51.5075 61.6648L53.8125 60.3677L54.295 61.0598C54.9725 62.0544 56.4425 63.4167 57.33 63.8692C59.8825 65.1808 63.385 64.9921 65.1175 63.4918C65.82 62.9255 66.2125 62.0544 66.16 61.1735C66.16 60.2782 66.0425 59.8765 65.56 59.2062C64.935 58.3496 63.6725 57.6188 60.065 56.1064C55.9375 54.3786 54.1525 53.3212 52.54 51.62C51.525 50.4972 50.77 49.176 50.34 47.7507C50.04 46.6545 49.9625 43.9056 50.1975 42.8094C51.045 38.9401 54.065 36.2565 58.4 35.4627C59.8075 35.199 63.0875 35.2982 64.4675 35.6273L64.465 35.6297ZM45.69 38.8699L45.715 42.0326H35.2975V70.6811H27.9275V42.0326H17.525V38.9328C17.525 37.205 17.565 35.7701 17.615 35.7314C17.655 35.6805 23.9825 35.6563 31.665 35.6684L45.65 35.7072L45.69 38.8699Z" fill="white"/>
</svg>
