<svg width="80" height="78" viewBox="0 0 80 78" fill="none" xmlns="http://www.w3.org/2000/svg">
<mask id="path-1-inside-1_50_21" fill="white">
<path fill-rule="evenodd" clip-rule="evenodd" d="M75.1 20.1407C75.272 21.3758 75.368 22.6953 75.368 24.1201C75.368 30.9264 74.716 31.3099 60.108 72.1825C72 65.4691 80 52.9985 80 38.7161C80 31.9834 78.224 25.6539 75.1 20.1407ZM40.704 42.1038L28.7 75.8556C36.8 78.1631 45.384 77.9281 53.284 75.2412C53.176 75.0748 53.08 74.896 53 74.7063L40.704 42.1038ZM67.004 36.7614C67.004 31.9761 65.228 28.6608 63.704 26.0823C61.68 22.8921 59.776 20.1947 59.776 17.0045C59.776 13.4465 62.568 10.1327 66.496 10.1327C66.672 10.1327 66.84 10.1552 67.012 10.163C59.896 3.85225 50.416 0 40 0C26.028 0 13.732 6.9373 6.58002 17.4487C9.12802 17.5262 12.548 17.558 19.816 17.0083C21.972 16.8844 22.224 19.9497 20.072 20.1936C20.072 20.1936 17.904 20.4422 15.492 20.5661L30.06 62.5035L38.812 37.0904L32.58 20.5623C30.428 20.4423 28.388 20.1936 28.388 20.1936C26.232 20.0697 26.484 16.8806 28.64 17.0045C36.908 17.6201 41.14 17.6665 49.836 17.0045C51.992 16.8806 52.248 19.9459 50.092 20.1936C50.092 20.1936 47.92 20.4423 45.512 20.5623L59.968 62.1821C65.676 43.7223 67.004 40.633 67.004 36.7614ZM0 38.7161C0 54.04 9.20001 67.2848 22.544 73.5606L3.46399 22.9593C1.24399 27.7756 0 33.1023 0 38.7161Z"/>
</mask>
<path fill-rule="evenodd" clip-rule="evenodd" d="M75.1 20.1407C75.272 21.3758 75.368 22.6953 75.368 24.1201C75.368 30.9264 74.716 31.3099 60.108 72.1825C72 65.4691 80 52.9985 80 38.7161C80 31.9834 78.224 25.6539 75.1 20.1407ZM40.704 42.1038L28.7 75.8556C36.8 78.1631 45.384 77.9281 53.284 75.2412C53.176 75.0748 53.08 74.896 53 74.7063L40.704 42.1038ZM67.004 36.7614C67.004 31.9761 65.228 28.6608 63.704 26.0823C61.68 22.8921 59.776 20.1947 59.776 17.0045C59.776 13.4465 62.568 10.1327 66.496 10.1327C66.672 10.1327 66.84 10.1552 67.012 10.163C59.896 3.85225 50.416 0 40 0C26.028 0 13.732 6.9373 6.58002 17.4487C9.12802 17.5262 12.548 17.558 19.816 17.0083C21.972 16.8844 22.224 19.9497 20.072 20.1936C20.072 20.1936 17.904 20.4422 15.492 20.5661L30.06 62.5035L38.812 37.0904L32.58 20.5623C30.428 20.4423 28.388 20.1936 28.388 20.1936C26.232 20.0697 26.484 16.8806 28.64 17.0045C36.908 17.6201 41.14 17.6665 49.836 17.0045C51.992 16.8806 52.248 19.9459 50.092 20.1936C50.092 20.1936 47.92 20.4423 45.512 20.5623L59.968 62.1821C65.676 43.7223 67.004 40.633 67.004 36.7614ZM0 38.7161C0 54.04 9.20001 67.2848 22.544 73.5606L3.46399 22.9593C1.24399 27.7756 0 33.1023 0 38.7161Z" fill="white"/>
<path d="M75.1 20.1407L109.901 0.420841L35.4823 25.6581L75.1 20.1407ZM60.108 72.1825L22.4414 58.7204L-13.6733 159.768L79.7721 107.015L60.108 72.1825ZM40.704 42.1038L78.1306 27.9883L39.6022 -74.1685L3.01656 28.7001L40.704 42.1038ZM28.7 75.8556L-8.98741 62.452L-23.2802 102.639L17.741 114.325L28.7 75.8556ZM53.284 75.2412L66.164 113.111L114.8 96.5691L86.8412 53.4717L53.284 75.2412ZM53 74.7063L15.5734 88.8217L15.8445 89.5407L16.1431 90.2487L53 74.7063ZM63.704 26.0823L98.139 5.72977L97.8179 5.18646L97.4798 4.65356L63.704 26.0823ZM67.012 10.163L65.2131 50.1225L178.086 55.2039L93.5522 -19.7639L67.012 10.163ZM6.58002 17.4487L-26.4909 -5.05277L-67.4979 55.216L5.365 57.4303L6.58002 17.4487ZM19.816 17.0083L17.5212 -22.9259L17.1598 -22.9051L16.7989 -22.8778L19.816 17.0083ZM20.072 20.1936L15.5672 -19.5519L15.5419 -19.549L15.5166 -19.5461L20.072 20.1936ZM15.492 20.5661L13.4401 -19.3813L-39.7798 -16.6477L-22.2932 33.6917L15.492 20.5661ZM30.06 62.5035L-7.72517 75.6291L30.2231 184.872L67.88 75.5283L30.06 62.5035ZM38.812 37.0904L76.632 50.1152L81.3293 36.4759L76.2398 22.978L38.812 37.0904ZM32.58 20.5623L70.0078 6.44993L60.8171 -17.9251L34.8074 -19.3757L32.58 20.5623ZM28.388 20.1936L33.227 -19.5126L31.9585 -19.6672L30.6828 -19.7405L28.388 20.1936ZM28.64 17.0045L31.61 -22.8851L31.2726 -22.9102L30.9348 -22.9296L28.64 17.0045ZM49.836 17.0045L47.5412 -22.9296L47.1701 -22.9083L46.7995 -22.8801L49.836 17.0045ZM50.092 20.1936L54.6409 59.9341L54.65 59.9331L54.659 59.9321L50.092 20.1936ZM45.512 20.5623L43.5208 -19.3881L-9.78542 -16.7312L7.72639 33.6865L45.512 20.5623ZM59.968 62.1821L22.1824 75.3064L62.1752 190.448L98.1828 73.9986L59.968 62.1821ZM22.544 73.5606L5.52022 109.757L94.7689 151.732L59.9717 59.4479L22.544 73.5606ZM3.46399 22.9593L40.8917 8.84665L7.15949 -80.613L-32.8627 6.21506L3.46399 22.9593ZM35.4823 25.6581C35.3953 25.0334 35.368 24.5088 35.368 24.1201H115.368C115.368 20.8818 115.149 17.7181 114.718 14.6233L35.4823 25.6581ZM35.368 24.1201C35.368 25.0315 35.3301 23.586 35.6524 21.7688C35.8656 20.5666 36.0367 20.3875 35.2133 22.8945C33.4384 28.2985 30.035 37.4737 22.4414 58.7204L97.7745 85.6447C104.789 66.0187 109.016 54.5658 111.219 47.8583C112.384 44.3096 113.631 40.2039 114.423 35.7383C115.324 30.6576 115.368 26.6118 115.368 24.1201H35.368ZM79.7721 107.015C103.288 93.74 120 68.4769 120 38.7161H40C40 38.5334 40.0281 38.3012 40.0969 38.0598C40.1634 37.8265 40.2496 37.6479 40.3226 37.5276C40.4551 37.3093 40.5274 37.3026 40.4439 37.3497L79.7721 107.015ZM120 38.7161C120 24.8449 116.319 11.7476 109.901 0.420841L40.2987 39.8606C40.225 39.7305 40.1453 39.5509 40.0855 39.3279C40.024 39.0984 40 38.8831 40 38.7161H120ZM3.01656 28.7001L-8.98741 62.452L66.3874 89.2593L78.3914 55.5075L3.01656 28.7001ZM17.741 114.325C33.6874 118.868 50.5869 118.409 66.164 113.111L40.404 37.3716C40.181 37.4475 39.9127 37.4584 39.659 37.3862L17.741 114.325ZM86.8412 53.4717C87.9577 55.1927 88.9829 57.0911 89.8569 59.1638L16.1431 90.2487C17.1771 92.7008 18.3943 94.9568 19.7268 97.0108L86.8412 53.4717ZM90.4266 60.5908L78.1306 27.9883L3.27733 56.2193L15.5734 88.8217L90.4266 60.5908ZM107.004 36.7614C107.004 21.003 100.69 10.0462 98.139 5.72977L29.2689 46.4349C29.7158 47.191 28.9926 46.0804 28.3228 44.2338C27.5567 42.1218 27.004 39.5345 27.004 36.7614H107.004ZM97.4798 4.65356C96.6367 3.32472 96.5817 3.25541 96.2875 2.77815C96.1263 2.51663 96.4125 2.95643 96.8257 3.79066C97.6957 5.54741 99.776 10.3133 99.776 17.0045H19.776C19.776 26.8859 22.8083 34.5956 25.1363 39.2962C27.0773 43.2151 29.7284 47.1964 29.9281 47.5111L97.4798 4.65356ZM99.776 17.0045C99.776 32.9163 87.1928 50.1327 66.496 50.1327V-29.8673C37.9431 -29.8673 19.776 -6.02337 19.776 17.0045H99.776ZM66.496 50.1327C65.6943 50.1327 65.0297 50.1072 64.5636 50.0831C64.1126 50.0598 63.7701 50.0335 63.6803 50.0266C63.6406 50.0235 63.5967 50.02 63.6492 50.0242C63.6761 50.0263 63.7757 50.0343 63.8951 50.0432C64.1316 50.0609 64.6122 50.0955 65.2131 50.1225L68.811 -29.7965C69.3258 -29.7734 69.721 -29.7445 69.8721 -29.7332C69.9488 -29.7275 70.0057 -29.7229 69.99 -29.7241C69.9853 -29.7245 69.9865 -29.7244 69.9761 -29.7253C69.969 -29.7258 69.9578 -29.7267 69.9449 -29.7277C69.9196 -29.7297 69.8791 -29.7329 69.8307 -29.7367C69.6554 -29.7502 69.2271 -29.7826 68.6898 -29.8104C68.1372 -29.8389 67.3856 -29.8673 66.496 -29.8673V50.1327ZM93.5522 -19.7639C79.2878 -32.4141 60.4206 -40 40 -40V40C40.1339 40 40.2242 40.012 40.2793 40.0223C40.336 40.0328 40.3755 40.0454 40.4023 40.0557C40.4608 40.0782 40.4826 40.0994 40.4718 40.0898L93.5522 -19.7639ZM40 -40C12.5858 -40 -12.005 -26.343 -26.4909 -5.05277L39.6509 39.9502C39.5925 40.0361 39.5505 40.0757 39.5395 40.0855C39.5282 40.0956 39.534 40.0885 39.5585 40.0754C39.5804 40.0637 39.6168 40.0474 39.6732 40.0332C39.7246 40.0203 39.8272 40 40 40V-40ZM5.365 57.4303C9.4275 57.5537 14.2638 57.5425 22.8331 56.8943L16.7989 -22.8778C13.6841 -22.6422 11.7073 -22.5552 10.447 -22.5243C9.28301 -22.4957 8.55048 -22.5099 7.79503 -22.5328L5.365 57.4303ZM22.1107 56.9424C12.5184 57.4936 2.01859 54.3586 -6.23103 46.6556C-13.9278 39.4687 -17.6161 30.2287 -18.309 21.7037C-19.0023 13.1746 -16.8508 3.51467 -10.4929 -4.77246C-3.68471 -13.6465 6.05951 -18.4743 15.5672 -19.5519L24.5769 59.9392C35.1605 58.7396 45.6802 53.4371 52.979 43.9237C59.8276 34.997 62.1848 24.5328 61.428 15.2224C60.6716 5.91602 56.6506 -4.08237 48.3674 -11.8168C39.5314 -20.0674 28.1915 -23.539 17.5212 -22.9259L22.1107 56.9424ZM20.072 20.1936C15.5166 -19.5461 15.5179 -19.5463 15.5192 -19.5464C15.5197 -19.5465 15.521 -19.5466 15.5219 -19.5467C15.5236 -19.5469 15.5253 -19.5471 15.527 -19.5473C15.5304 -19.5477 15.5336 -19.5481 15.5367 -19.5484C15.543 -19.5491 15.5487 -19.5498 15.554 -19.5504C15.5646 -19.5516 15.5734 -19.5526 15.5804 -19.5534C15.5944 -19.5549 15.6013 -19.5557 15.6015 -19.5557C15.6019 -19.5558 15.5766 -19.553 15.5289 -19.548C15.4318 -19.5378 15.2541 -19.5198 15.0213 -19.4983C14.5195 -19.4522 13.9421 -19.4071 13.4401 -19.3813L17.5439 60.5134C19.4539 60.4153 21.1665 60.2742 22.3517 60.1651C22.9624 60.1089 23.4774 60.0571 23.8622 60.0168C24.0555 59.9966 24.2184 59.979 24.3468 59.9648C24.411 59.9578 24.4669 59.9516 24.5138 59.9463C24.5372 59.9437 24.5585 59.9413 24.5774 59.9391C24.5869 59.938 24.5958 59.937 24.6042 59.9361C24.6083 59.9356 24.6124 59.9351 24.6163 59.9347C24.6182 59.9345 24.6201 59.9342 24.622 59.934C24.6229 59.9339 24.6243 59.9338 24.6247 59.9337C24.6261 59.9335 24.6275 59.9334 20.072 20.1936ZM-22.2932 33.6917L-7.72517 75.6291L67.8452 49.3779L53.2772 7.44045L-22.2932 33.6917ZM67.88 75.5283L76.632 50.1152L0.991989 24.0655L-7.76003 49.4787L67.88 75.5283ZM76.2398 22.978L70.0078 6.44993L-4.8478 34.6746L1.38419 51.2027L76.2398 22.978ZM34.8074 -19.3757C34.496 -19.393 34.0581 -19.4289 33.6195 -19.4723C33.4235 -19.4917 33.2727 -19.5081 33.192 -19.5172C33.1527 -19.5216 33.1334 -19.5238 33.1375 -19.5234C33.1396 -19.5231 33.1478 -19.5221 33.1625 -19.5204C33.1699 -19.5195 33.1789 -19.5184 33.1896 -19.5171C33.195 -19.5165 33.2008 -19.5158 33.207 -19.515C33.2101 -19.5146 33.2133 -19.5143 33.2166 -19.5138C33.2183 -19.5136 33.22 -19.5134 33.2217 -19.5132C33.2226 -19.5131 33.2239 -19.513 33.2243 -19.5129C33.2256 -19.5128 33.227 -19.5126 28.388 20.1936C23.549 59.8999 23.5504 59.9 23.5517 59.9002C23.5522 59.9002 23.5535 59.9004 23.5545 59.9005C23.5563 59.9008 23.5582 59.901 23.5601 59.9012C23.5639 59.9017 23.5679 59.9022 23.572 59.9027C23.5802 59.9037 23.5889 59.9047 23.5982 59.9058C23.6168 59.9081 23.6375 59.9106 23.6604 59.9133C23.706 59.9188 23.7601 59.9252 23.8223 59.9325C23.9463 59.947 24.1032 59.9651 24.2888 59.9859C24.6578 60.0272 25.1515 60.0804 25.7345 60.1382C26.854 60.2491 28.5121 60.3976 30.3526 60.5002L34.8074 -19.3757ZM30.6828 -19.7405C40.8137 -19.1583 51.3979 -14.385 58.7262 -5.01215C65.4433 3.57902 67.4222 13.4377 66.7727 21.6572C66.1216 29.8972 62.653 38.9736 55.196 46.1856C47.0989 54.0168 36.4545 57.5195 26.3453 56.9386L30.9348 -22.9296C19.7475 -23.5725 8.26312 -19.7176 -0.420215 -11.3195C-8.46343 -3.54045 -12.2645 6.31779 -12.9787 15.3551C-13.6912 24.3719 -11.5058 35.0433 -4.29694 44.2634C3.52314 54.2653 14.8843 59.4837 26.0932 60.1278L30.6828 -19.7405ZM25.6701 56.8941C35.7931 57.6478 42.0379 57.7139 52.8725 56.8891L46.7995 -22.8801C40.2421 -22.3809 38.023 -22.4076 31.61 -22.8851L25.6701 56.8941ZM52.1308 56.9386C42.5391 57.4898 32.0468 54.3554 23.802 46.6635C16.1082 39.4856 12.4125 30.252 11.7143 21.723C11.0157 13.1882 13.1656 3.52663 19.5183 -4.76109C26.3175 -13.6312 36.044 -18.4552 45.525 -19.5448L54.659 59.9321C65.218 58.7185 75.7209 53.4185 83.0111 43.9078C89.8549 34.9796 92.2103 24.5129 91.4477 15.1964C90.6855 5.8855 86.6562 -4.10661 78.3755 -11.8322C69.5437 -20.0717 58.2109 -23.5428 47.5412 -22.9296L52.1308 56.9386ZM50.092 20.1936C45.543 -19.5469 45.5444 -19.547 45.5458 -19.5472C45.5462 -19.5472 45.5476 -19.5474 45.5484 -19.5475C45.5502 -19.5477 45.552 -19.5479 45.5537 -19.5481C45.5571 -19.5485 45.5604 -19.5488 45.5636 -19.5492C45.5699 -19.5499 45.5758 -19.5506 45.5813 -19.5512C45.5922 -19.5524 45.6012 -19.5535 45.6084 -19.5543C45.6229 -19.5559 45.6304 -19.5567 45.6312 -19.5568C45.6327 -19.557 45.6085 -19.5543 45.5621 -19.5495C45.4674 -19.5396 45.2926 -19.5219 45.0634 -19.5009C44.5676 -19.4556 44.0036 -19.4122 43.5208 -19.3881L47.5032 60.5127C49.4284 60.4167 51.1544 60.2758 52.3466 60.1668C52.9614 60.1106 53.4801 60.0587 53.8679 60.0182C54.0627 59.9979 54.2271 59.9801 54.3567 59.9659C54.4216 59.9588 54.4781 59.9525 54.5256 59.9472C54.5493 59.9445 54.5708 59.9421 54.5901 59.9399C54.5997 59.9388 54.6087 59.9378 54.6172 59.9368C54.6215 59.9364 54.6256 59.9359 54.6295 59.9354C54.6315 59.9352 54.6334 59.935 54.6353 59.9348C54.6363 59.9347 54.6377 59.9345 54.6381 59.9345C54.6395 59.9343 54.6409 59.9341 50.092 20.1936ZM7.72639 33.6865L22.1824 75.3064L97.7537 49.0579L83.2977 7.43803L7.72639 33.6865ZM98.1828 73.9986C100.737 65.7392 102.88 59.1078 104.009 55.2615C105.329 50.7603 107.004 44.5688 107.004 36.7614H27.004C27.004 35.0978 27.1806 33.5115 27.413 32.2904C27.564 31.4974 27.6492 31.3602 27.2442 32.7409C26.8533 34.0731 26.2794 35.9118 25.3205 38.9585C24.4004 41.882 23.2155 45.6366 21.7532 50.3657L98.1828 73.9986ZM-40 38.7161C-40 70.6499 -20.8128 97.3724 5.52022 109.757L39.5678 37.3641C39.4703 37.3182 39.5242 37.3036 39.6508 37.4952C39.723 37.6047 39.8162 37.7804 39.8903 38.0222C39.9676 38.2744 40 38.5216 40 38.7161H-40ZM59.9717 59.4479L40.8917 8.84665L-33.9637 37.072L-14.8837 87.6733L59.9717 59.4479ZM-32.8627 6.21506C-37.4165 16.0946 -40 27.1184 -40 38.7161H40C40 38.8749 39.9812 39.0626 39.938 39.256C39.8957 39.4456 39.8398 39.597 39.7907 39.7036L-32.8627 6.21506Z" fill="white" mask="url(#path-1-inside-1_50_21)"/>
</svg>
